<svg xmlns="http://www.w3.org/2000/svg" direction="ltr" width="417.9917576137909" height="185.03050838020224" viewBox="43.344929397927785 81.49022877873372 417.9917576137909 185.03050838020224" stroke-linecap="round" stroke-linejoin="round" style="background-color: transparent;" data-color-mode="dark" class="tl-container tl-theme__force-sRGB tl-theme__dark"><defs/><g transform="matrix(1, 0, 0, 1, 135.3333, 143.3333)" opacity="1"><g transform="scale(1)"><path d="M-2.9534,1.4767 T-3.4088,0.5651 -4.6164,-1.5683 -6.2649,-4.0254 -7.9843,-6.4636 -9.7805,-9.0764 -11.9872,-11.9308 -14.9197,-14.7097 -18.11,-16.6458 -21.1036,-18.0194 -24.3906,-19.2226 -27.9576,-20.0246 -31.5244,-20.2085 -35.3166,-19.4382 -38.8512,-18.2307 -41.6277,-16.8588 -44.7388,-14.503 -47.6557,-11.4952 -49.5989,-8.3573 -51.4526,-5.5087 -53.6114,-2.3432 -55.3929,2.3216 -56.2233,7.1035 -56.4948,10.6954 -56.531,13.5184 -55.9808,16.7906 -54.8333,20.2085 -53.5049,23.2973 -51.725,26.1359 -49.7474,28.7309 -47.7625,31.3654 -45.2202,33.3966 -42.6563,35.0152 -40.0919,36.6125 -37.2751,37.955 -34.607,39.2425 -31.65,40.0679 -28.4061,40.3318 -25.2721,40.4043 -21.4112,40.0497 -17.2052,39.2213 -13.9635,38.4774 -10.4928,37.4 -6.3502,35.4278 -2.2218,32.9436 1.4867,30.3382 4.2965,28.0818 7.0688,25.6426 10.128,22.9412 12.8537,19.517 15.1501,15.8342 16.847,12.732 18.1704,8.9587 19.2804,4.9893 20.0987,1.2487 20.7871,-2.3402 21.1844,-5.4868 21.2637,-8.5701 21.3018,-12.2967 21.3098,-15.9802 20.9637,-19.0476 20.1775,-22.2119 19.3974,-23.7821 19.0736,-23.6896 A3.5715,3.5715 0 0 1 23.6755,-29.1526 T25.2969,-26.6644 27.3152,-22.5174 27.8769,-19.1981 28.0203,-15.9648 28.0049,-12.2391 27.9637,-8.3682 27.7748,-4.8114 27.2663,-1.3894 26.4875,2.3902 25.5363,6.6627 24.3926,10.7375 22.8588,15.0314 20.6915,19.1236 18.5202,22.5075 15.8639,25.9572 12.7018,29.0041 9.3501,31.8627 6.3635,34.5301 3.2156,36.8846 -1.0865,39.6518 -5.7882,42.2659 -9.6684,44.04 -13.4279,45.2401 -18.1724,46.329 -22.159,47.1698 -25.3265,47.5466 -28.7479,47.5023 -32.2805,47.2699 -35.9207,46.4295 -39.2088,45.1258 -41.869,43.8058 -44.9164,42.1891 -47.9215,40.466 -50.6518,38.6995 -53.1038,36.3338 -55.1707,33.502 -57.2466,30.608 -59.3351,27.1467 -61.116,23.3036 -62.2354,19.6561 -63.037,15.6598 -63.3908,11.8785 -63.251,8.5279 -62.7615,4.6967 -62.004,0.9082 -60.9631,-2.4725 -59.5625,-5.3666 -57.5731,-8.2429 -55.3039,-11.9109 -53.4394,-15.2012 -51.2208,-17.8476 -48.6203,-20.2862 -45.6972,-22.3696 -41.8027,-24.355 -37.4671,-26.0439 -33.1104,-27.1085 -29.2583,-27.4026 -26.1644,-26.9454 -23.3087,-26.0527 -20.0035,-24.824 -16.4992,-23.383 -13.0212,-21.4972 -9.5026,-18.9562 -6.7748,-16.2852 -4.5397,-13.4075 -2.4375,-10.3641 -0.5,-7.4929 1.2537,-4.6899 2.4968,-2.3891 2.9534,-1.4767 A3.302,3.302 0 0 1 -2.9534,1.4767 ZM23.9295,-23.9255 T23.4251,-23.4844 22.1813,-21.1826 20.7423,-16.9691 19.6769,-13.1339 18.9749,-10.0857 18.2332,-6.335 17.4838,-2.5376 16.8739,0.6287 16.2635,4.6655 15.7771,8.9122 15.6159,12.6098 15.6042,16.3351 15.8298,19.8831 16.9514,23.4335 19.5795,24.4195 22.9884,22.3674 25.9248,19.5994 28.365,16.6278 30.1688,13.8208 31.6922,11.1475 33.384,8.6182 34.9662,5.9759 36.4746,2.6987 38.1919,-0.1816 40.5662,-2.7033 41.9329,-4.1949 A3.8129,3.8129 0 0 1 47.6543,0.8467 T46.4424,2.1548 44.0501,4.8121 42.0251,7.8266 40.3229,11.1749 38.6461,14.0206 37.0134,16.6597 34.884,20.2459 32.1779,23.811 29.7175,26.311 26.819,28.7347 23.3188,31.0448 19.5975,32.1598 15.7862,31.8848 12.8504,30.308 10.9542,27.7064 9.5627,24.6329 8.6353,21.0088 8.3956,17.3797 8.4439,13.907 8.5291,10.4823 8.7678,7.3558 9.1533,4.0938 9.6252,0.9185 10.1569,-2.265 10.8508,-5.3456 11.5102,-8.495 12.0803,-11.9067 12.7739,-15.0038 13.5947,-18.4657 14.6531,-22.0234 15.8582,-24.965 17.6473,-27.6412 18.8197,-28.9167 A3.5715,3.5715 0 0 1 23.9295,-23.9255 ZM46.8524,-4.8834 T46.976,-4.8071 47.0996,-4.7307 A3.8179,3.8179 0 0 1 42.9768,1.6963 T42.8558,1.6158 42.7348,1.5352 A3.8129,3.8129 0 0 1 46.8524,-4.8834 ZM48.6033,-0.1511 T48.2491,0.7883 47.5401,3.6292 46.517,7.2516 45.5398,10.4789 45.2094,13.524 43.4376,14.5989 42.7162,12.7898 43.9265,9.904 43.8606,6.6325 43.5471,2.8122 43.4807,0.7232 A3.8497,3.8497 0 0 1 51.1793,0.6168 T51.1885,1.7087 51.3278,4.4898 51.6534,8.6018 51.4928,12.7159 49.9774,15.9127 47.8303,18.6328 44.7221,20.4427 41.1302,20.4326 38.8761,18.6516 37.7711,15.6653 37.4748,12.4256 37.7113,9.492 38.4896,6.5357 39.6252,3.724 40.3794,0.9088 41.0196,-1.7148 41.4731,-2.8833 A3.8179,3.8179 0 0 1 48.6033,-0.1511 ZM51.071,-0.2382 T51.299,0.6727 52.0634,2.893 53.4769,5.9738 55.4869,9.8413 57.38,13.557 59.1714,16.7526 60.5987,18.7898 60.9947,19.251 A3.653,3.653 0 0 1 55.1033,23.5717 T53.8641,21.6034 51.9322,18.2355 50.2863,15.1806 48.1106,11.5888 46.0247,8.112 44.6191,5.1081 43.833,2.6114 43.589,1.5782 A3.8497,3.8497 0 0 1 51.071,-0.2382 ZM57.5746,17.7893 T57.7156,17.7666 57.8567,17.744 A3.6613,3.6613 0 0 1 58.8076,25.0045 T58.6655,25.019 58.5233,25.0334 A3.653,3.653 0 0 1 57.5746,17.7893 ZM54.7138,20.8154 T54.8222,20.0619 54.9435,17.3827 54.9566,13.7819 55.2071,10.5982 55.8915,6.69 56.2718,2.8609 56.5354,-0.6769 57.7681,-4.5185 59.5941,-7.3879 61.2171,-10.0986 63.0435,-12.9735 65.2872,-15.4774 67.7237,-17.276 70.4536,-18.0987 73.3097,-18.3872 76.7416,-18.1149 80.1642,-16.2096 82.2494,-13.3745 83.5649,-10.2633 84.5429,-6.2405 85.5288,-2.2282 86.3966,-0.7072 86.6024,-1.024 A3.8119,3.8119 0 0 1 83.8644,6.0911 T81.6849,4.476 79.0538,1.5301 78.0615,-1.4678 77.1654,-5.3735 76.5644,-9.2486 74.807,-10.856 71.9033,-10.9999 69.5515,-9.6709 67.8271,-6.8183 65.8474,-3.6551 64.2028,-0.5067 63.7271,2.3214 63.3248,5.3529 62.8904,8.4538 62.5983,11.688 62.3781,15.0422 62.3359,18.2468 62.1256,20.8513 61.9506,21.9331 A3.6613,3.6613 0 0 1 54.7138,20.8154 ZM82.466,-0.0879 T83.2826,-0.9205 85.6008,-3.3983 88.3337,-6.3618 91.2418,-10.1 94.4847,-14.7549 97.3613,-18.7543 99.5221,-21.8733 101.2343,-25.9213 102.0962,-28.6149 A3.4797,3.4797 0 0 1 108.5638,-26.0451 T107.7431,-24.0688 106.3184,-20.763 104.8501,-18.1627 102.6676,-15.1059 99.9048,-11.0238 97.6658,-7.4047 96.0837,-4.5839 93.9083,-1.4487 91.4196,1.4189 89.1597,3.9021 88.0008,5.155 A3.8119,3.8119 0 0 1 82.466,-0.0879 ZM107.7916,-24.8706 T107.1368,-24.1772 105.7524,-22.072 105.0311,-19.2391 105.0439,-16.2365 103.1738,-14.3253 101.0568,-15.3925 100.8536,-18.8501 100.8974,-22.5485 100.893,-26.3376 100.8839,-28.489 A3.786,3.786 0 0 1 108.4559,-28.4881 T108.4471,-27.3609 108.4351,-24.7247 108.439,-21.2939 108.4083,-17.8742 108.2239,-14.8754 107.5698,-11.8128 106.1552,-9.1721 103.7524,-7.6159 100.559,-7.8985 98.2334,-11.2048 97.614,-15.2213 97.6448,-18.4431 97.8165,-21.8811 98.5686,-24.9463 100.3304,-27.4053 102.1789,-29.1374 102.8684,-29.7894 A3.4797,3.4797 0 0 1 107.7916,-24.8706 ZM107.0324,-31.447 T108.394,-30.2918 110.5009,-27.8331 112.5319,-24.3509 115.1115,-20.6083 117.8826,-17.1743 120.9449,-13.4754 123.9925,-10.2103 126.8187,-7.9565 130.0493,-7.0041 133.6112,-6.8656 136.8356,-6.8781 137.9992,-9.1277 137.6336,-11.3609 A3.6966,3.6966 0 0 1 145.0264,-11.2991 T145.0053,-9.4895 144.7525,-6.1878 143.7261,-3.2467 140.7683,-0.7827 136.9248,0.2048 133.4139,0.1174 130.0664,-0.0711 126.6857,-0.7278 123.3886,-2.1747 120.6915,-4.348 117.7103,-7.2395 114.173,-10.8951 110.936,-14.5427 108.5031,-17.2827 106.3503,-20.0578 104.4115,-23.1742 102.9585,-25.0781 102.3075,-25.53 A3.786,3.786 0 0 1 107.0324,-31.447 Z" stroke-linecap="round" fill="#e599f7"/></g></g><g transform="matrix(1, 0, 0, 1, 228.6667, 163.3333)" opacity="1"><g transform="scale(1)"><path d="M2.6695,0.244 T2.4998,1.9136 2.1582,5.6376 1.6901,10.1091 1.2173,14.9849 0.4603,20.602 -0.5913,26.3169 -1.3159,31.7017 -1.7164,37.1483 -1.9108,41.8059 -2.2752,45.8612 -2.6938,49.3097 -2.8005,53.0676 -2.7428,57.5563 -2.3763,61.396 -1.677,64.6571 -0.8837,67.6001 0.9314,68.3179 3.8937,66.9737 6.711,65.618 9.8163,64.0814 13.3505,62.1932 16.2367,60.2999 18.5675,58.5702 20.9026,56.6089 23.3623,54.4934 24.9503,51.7335 25.1728,48.3202 23.8551,45.2124 21.3484,42.8251 18.1545,41.7408 14.1729,41.4943 9.7062,41.8949 4.8886,42.9962 0.7316,44.2975 -2.7425,45.5604 -6.6873,46.7533 -8.8926,47.3735 A3.4018,3.4018 0 0 1 -9.7674,40.6265 T-8.7008,40.564 -5.7756,39.9347 -1.5169,38.4318 3.3795,36.808 7.2631,35.7675 10.3938,35.0414 13.6433,34.6294 17.018,34.6781 20.9762,35.1965 24.3522,36.4296 26.8032,38.3862 28.9967,41.009 30.8223,43.8437 31.746,47.8063 31.6745,51.9307 30.8435,54.9375 28.6349,57.8043 25.7646,59.9792 22.5551,62.2342 19.3355,64.6795 16.2721,66.9602 12.7842,69.3917 8.4859,71.9145 4.5061,73.7676 0.8936,74.2562 -3.1862,73.4775 -5.842,71.1411 -6.9372,68.1064 -7.4444,65.0915 -7.7688,61.6131 -7.7474,57.4027 -7.2857,52.6895 -6.7096,48.6968 -6.0749,45.4447 -5.6179,41.6508 -5.4172,36.909 -5.0914,31.23 -4.481,25.6604 -3.6401,20.1743 -3.1564,14.7068 -3.0249,9.8269 -2.9355,5.3007 -2.8053,1.4289 -2.6695,-0.244 A2.6806,2.6806 0 0 1 2.6695,0.244 ZM-9.3632,40.5984 T-8.9657,40.5785 -8.5683,40.5586 A3.4338,3.4338 0 0 1 -8.5014,47.4259 T-8.8991,47.4138 -9.2968,47.4016 A3.4018,3.4018 0 0 1 -9.3632,40.5984 ZM-10.7587,41.3758 T-9.9164,40.6403 -7.7103,39.0551 -4.169,36.4074 -0.3936,33.3751 2.9425,30.5777 6.5038,27.4909 9.8623,24.4696 13.1724,21.0997 16.7384,17.55 19.6718,14.4324 21.9654,11.7485 24.425,8.5445 26.5334,5.1451 27.9119,1.7012 29.2143,-1.8086 30.417,-4.8736 31.7374,-8.415 33.1122,-11.7608 34.151,-15.3968 34.8107,-19.3568 32.8148,-22.0885 29.0706,-23.7307 25.449,-24.7436 21.9895,-25.2664 19.0634,-24.5341 16.3087,-22.9612 12.9231,-20.5709 9.3707,-17.6904 6.3161,-15.1689 3.356,-12.8116 0.1692,-10.1786 -3.1572,-7.3804 -5.7699,-4.8374 -8.5411,-1.9074 -10.9838,0.9483 -11.1748,2.6672 -10.5545,3.1408 A3.535,3.535 0 0 1 -16.1055,7.5192 T-17.1669,6.0612 -18.4721,3.0761 -18.2721,-0.133 -16.5001,-3.2546 -13.7113,-5.8284 -11.2496,-8.0735 -9.0895,-10.041 -6.4265,-11.9608 -3.0699,-14.4183 0.0254,-16.8105 2.6995,-19.1658 5.5255,-21.9543 8.1901,-24.5296 10.6298,-26.5398 14.5788,-29.0086 18.9448,-31.1753 22.4437,-31.5784 26.7398,-30.923 31.325,-29.5489 35.7234,-27.3121 39.199,-24.2615 40.4052,-20.3153 39.755,-16.1534 38.7852,-12.7123 37.8277,-9.8804 36.6374,-6.7812 35.4722,-2.943 33.9454,1.367 31.875,5.815 29.4136,9.6035 27.1021,12.377 25.0667,14.5508 22.6427,17.1472 19.6955,20.3831 16.3577,24.0448 13.1211,27.7784 10.0365,31.1093 6.7832,34.6699 3.7366,37.9477 1.0797,40.6334 -1.4092,43.0402 -3.841,44.8461 -5.6985,46.1077 -6.311,46.6087 A3.4338,3.4338 0 0 1 -10.7587,41.3758 Z" stroke-linecap="round" fill="#e599f7"/></g></g><g transform="matrix(1, 0, 0, 1, 274.6667, 152)" opacity="1"><g transform="scale(1)"><path d="M3.3803,-0.485 T3.5218,0.5815 4.0663,3.773 4.5919,7.5775 4.9759,11.0228 5.8751,14.4228 7.1915,17.713 8.2796,20.0465 8.6892,20.7242 A3.6899,3.6899 0 0 1 2.144,24.1334 T1.452,22.2523 -0.1211,18.1894 -1.3925,14.5444 -1.9938,11.3032 -2.3044,7.8456 -2.7281,4.3884 -3.2163,1.548 -3.3803,0.485 A3.4149,3.4149 0 0 1 3.3803,-0.485 ZM2.3139,20.4316 T2.5828,20.1225 3.3754,18.3707 4.5224,15.0362 5.5419,11.4229 6.4887,8.3922 7.3498,5.5224 8.2518,2.2437 8.9291,-0.5562 9.0149,-1.6381 A3.6529,3.6529 0 0 1 16.2776,-0.8446 T15.7428,1.5047 14.6851,5.7556 13.5379,9.4871 12.5055,13.3271 11.5882,17.1002 10.5343,20.3938 9.2544,23.1752 8.5193,24.426 A3.6899,3.6899 0 0 1 2.3139,20.4316 ZM15.667,-3.2954 T16.5728,-1.9765 18.0574,0.9957 19.5673,4.2492 22.0151,5.1406 23.7435,2.058 24.3687,-1.6691 25.1993,-4.7154 26.7956,-8.2516 30.0418,-10.8614 33.8334,-11.7034 37.3716,-11.7839 41.114,-10.9889 44.9997,-8.6408 48.2554,-5.7965 50.8758,-3.2303 52.5694,-1.7153 52.9414,-1.4699 A3.8096,3.8096 0 0 1 47.6543,4.0165 T46.1112,2.4176 42.9409,-0.7331 40.1421,-3.2455 37.3627,-4.1875 34.2761,-3.7656 32.401,-1.9385 31.505,1.3429 30.7423,5.1237 29.5315,8.5705 27.1473,10.941 24.1915,12.1202 21.1984,12.4388 18.2486,12.2104 15.3332,10.525 13.0649,7.6465 11.5436,4.4402 10.2385,1.7274 9.6255,0.8127 A3.6529,3.6529 0 0 1 15.667,-3.2954 ZM46.5485,0.598 T46.6794,-0.0938 46.825,-2.1923 46.8484,-5.2271 46.85,-8.3487 46.9369,-11.471 48.5079,-14.8779 52.1047,-16.6466 55.5971,-15.9797 58.1699,-14.3732 60.4437,-12.3681 63.1728,-9.6783 65.6278,-9.5977 67.4887,-12.2969 69.2997,-14.6251 71.3934,-17.6124 74.4601,-21.2843 77.7139,-24.9183 79.7811,-27.3125 80.3169,-27.9387 A3.7798,3.7798 0 0 1 85.7134,-22.6448 T84.1573,-20.9515 81.3966,-18.1893 79.1537,-15.6017 77.2937,-12.7594 75.0161,-9.7013 72.4814,-6.5976 70.2886,-4.189 67.052,-2.1243 62.8313,-1.4208 58.9627,-3.2569 56.2448,-5.9055 54.8971,-8.4405 54.4891,-8.3455 54.4855,-5.2059 54.4772,-2.0002 54.2558,0.7551 54.0472,1.9486 A3.8096,3.8096 0 0 1 46.5485,0.598 ZM86.7786,-24.9407 T86.6499,-23.7065 85.6386,-20.3246 84.4034,-16.5812 83.1866,-12.489 82.3223,-9.9926 A3.842,3.842 0 0 1 75.1769,-12.8189 T75.5432,-13.7104 76.51,-16.3933 77.5418,-19.7337 78.5637,-22.7947 79.203,-24.9749 79.2517,-25.6429 A3.7798,3.7798 0 0 1 86.7786,-24.9407 ZM74.9285,-11.8061 T75.4817,-13.9432 77.4361,-17.2374 80.2897,-19.0061 83.609,-19.723 86.9424,-19.8339 90.7489,-19.2837 94.572,-17.7315 97.8854,-14.8837 100.4764,-11.5989 102.3134,-7.5192 104.1399,-2.8403 105.7019,2.0469 107.1173,8.1976 107.815,13.2824 107.9213,16.9611 107.9099,20.7871 107.7864,25.2997 107.298,30.7627 106.6868,36.0138 106.1731,40.9335 105.2374,46.0571 104.1602,50.4404 103.3659,53.9705 102.3035,57.5436 100.9323,60.7789 99.4052,63.4372 97.6672,65.9633 95.5044,69.0384 93.5439,72.0979 91.5821,74.2844 88.6584,75.4914 84.8629,74.7572 81.2647,72.0423 79.1701,68.9437 77.392,64.6965 75.8278,60.2732 75.1476,57.2021 74.7963,54.0659 74.6708,50.6671 75.0007,46.7847 75.7369,42.6372 76.5435,38.2653 77.6934,33.4849 79.6115,28.0012 81.8866,22.0411 83.7196,17.0407 85.1665,12.9488 86.7171,9.0775 88.3254,5.1747 89.944,1.4329 91.422,-1.6165 93.1127,-4.7379 95.4599,-8.001 97.9613,-11.084 100.176,-13.7124 102.9577,-16.206 105.8957,-18.8915 108.5501,-21.2775 111.6213,-23.6449 114.3585,-26.0441 116.4843,-28.7215 117.5761,-31.7676 116.5485,-34.3239 114.9542,-35.241 114.5277,-35.1395 A3.7145,3.7145 0 0 1 117.6511,-41.8801 T118.694,-41.3715 120.9362,-39.7858 123.2119,-37.0262 124.4475,-32.9675 124.1266,-28.7363 122.8592,-25.5386 120.4983,-22.7489 117.53,-20.1396 114.8458,-17.9735 111.9769,-15.7777 108.6058,-13.0258 105.5114,-10.3398 102.6648,-7.3158 99.9306,-4.1698 97.8285,-1.6756 96.0658,0.9443 94.276,3.574 92.2214,6.8951 90.2818,10.5557 88.7636,14.1977 87.3606,18.326 85.6311,23.4067 83.5958,29.2723 82.0581,34.3533 81.3232,38.9343 80.9033,43.3888 80.4997,47.0838 80.5316,51.7274 81.2735,57.115 83.0194,62.1303 85.0288,66.3378 86.8932,69.1556 88.9418,69.1322 91.3831,66.0702 93.7875,63.1108 96.1725,59.8655 98.2877,56.2684 99.3974,52.9781 100.3578,49.4826 101.3912,45.419 102.1055,40.6063 102.387,35.643 102.6759,30.5475 102.7272,25.3735 102.481,20.9532 102.244,17.3024 101.9357,13.943 101.4997,10.8942 100.7026,7.8466 99.4083,4.0006 97.8208,-0.3425 95.9106,-4.641 93.943,-8.1331 91.8284,-10.4778 89.1074,-11.844 86.2025,-12.1192 83.3555,-11.592 82.2458,-11.0473 82.5707,-11.0054 A3.842,3.842 0 0 1 74.9285,-11.8061 ZM119.6174,-37.3474 T119.3765,-36.7616 119.8644,-34.2437 121.3639,-31.1365 124.1674,-29.5435 127.8203,-29.2005 131.4885,-29.381 135.032,-29.6334 138.2605,-29.9425 141.6725,-30.5175 144.9534,-31.1438 147.7711,-32.1561 151.6072,-33.623 154.2275,-34.2912 A3.6482,3.6482 0 0 1 155.1125,-27.0488 T154.2287,-27.0839 151.699,-26.3169 147.7332,-24.8026 143.9646,-23.7707 140.1611,-23.1102 135.8324,-22.5384 132.1046,-22.1672 128.1703,-21.8344 124.3778,-21.7051 120.9233,-22.2179 117.7297,-23.8907 115.4755,-26.3605 113.9877,-29.1305 112.7303,-31.8971 111.8575,-34.889 112.1094,-38.1549 112.5614,-39.6722 A3.7145,3.7145 0 0 1 119.6174,-37.3474 Z" stroke-linecap="round" fill="#e599f7"/></g></g></svg>