<svg version="1.2" xmlns="http://www.w3.org/2000/svg" viewBox="0 0 1080 1080" width="1080" height="1080">
	<title>New Project</title>
	<style>
		.s0 { fill: none;stroke: #000000;stroke-miterlimit:10 } 
	</style>
	<g id="Layer 1">
		<path id="Shape 1" fill-rule="evenodd" class="s0" d="m239 278.3c-20.7-30.1-81.4-31.3-107.7-9.1-43.5 36.8-38.6 134.2 19.7 154.6 21.3 7.4 46 4 67.3-0.4 18-3.6 38.7-7.4 55.3-15.8 38.7-19.5 56.6-75.7 61.7-115.5 2-15.1 6.5-62.5-4.4-75.3-8.4-9.7-31.6 10.8-36.2 15.4-21.7 21.8-17.5 40.1-4.3 65.7 5.1 10 9.4 20.1 21.1 22.9 21.9 5.2 42.5-34 51.5-49.8 1.8-3.2 16.7-13.5 19.3-8.6 0 0.1-10.1 5.4-10.9 5.9-3 2.1-10.2 11.9-6 15.7 6.7 6.1 13.1-8.4 17.6-8.5 7-0.2 7.8 11.7 17 8.4 7.7-2.7 13.9-16.6 21.1-17.5 11.2-1.3 20.5 8.2 32.7 3.8 10.7-3.8 34.3-26.1 44.4-25.7 5.2 0.2-9.1 13.3-9 10.7 0-5.1 7.6-5.7 10.7-3.5 5.6 4.2 7.5 13.2 12.4 18.2 8.9 9.1 24.8 8.4 36.7 8.4"/>
		<path id="Shape 2" fill-rule="evenodd" class="s0" d="m357 337.3c-30 44.9-47 99.9-63.3 151-4.1 13-7.2 26.5-8.4 40.1-0.3 3.7-1 10 2.7 12.4 4.2 2.8 20.3-16.9 21.6-18.4 17-20.6 30-43.3 42.2-66.9 3-5.7 11.8-18.3 11-26-0.4-3.5-8.7-4-11.1-4-11.8-0.4-23.9 4.6-34.5 9.1-3.7 1.6-7.1 3.3-10.6 5.4-1.2 0.8-5.3 2.7-3.9 2.2 7.5-2.4 18.2-12.1 23.8-15.7 36-23.5 56.7-26.9 61.1-71 0.5-5.6 1.9-14.4-0.4-19.8-5.1-12-19.4-9.5-29.6-6.9-22.3 5.8-48.6 15.3-67.4 29.4-4.8 3.5-13.4 21.3-5.2 25.1"/>
		<path id="Shape 3" fill-rule="evenodd" class="s0" d="m397 331.3c0 3.3-0.8 29.5 1.1 30.7 3.6 2.2 4.2-6.5 4.9-8 2.6-5.6 6.3-13 7.6-18.9 0.4-1.9 0.2-8.9 1.7-10.3 0.2-0.2 1.8 7.6 2.1 8.5 0.6 2.2 2.8 20.7 6.6 20.9 1.1 0 1-1.5 1-2.2 0.2-5.6 0.6-16.2 6.3-19.4 6.2-3.5 12.3 10.8 13.7 14.7 0.1 0.5 0.8 2.3 1.7 1.6 0.8-0.7 0.3-4.1 0.3-5 0.1-6.1 1.2-12.7 3-18.5 1-3.2 12 12.5 17.4 10.6 6.8-2.5 15.1-12 19.5-17.5 1.7-2.1 3-4.4 5-6.3 0.4-0.4 2.6-2.5 2.6-2.5-3.9-1-22.9 14.2-17.1 19.3 0.4 0.3 1.2 0.2 1.6 0 5.8-1.9 10.3-7.3 17-3.3 21.1 12.8 30.5 61.1 27.2 83.1-3.3 22.2-20.5 46.3-40.9 55.6-5.2 2.4-16.2 8.3-22.4 5.3-7.1-3.5 1.3-34.1 2.3-38 8.6-34.5 33-78 56.4-105.2 4.7-5.6 30.3-20.1 29.3-26.1-0.5-3.5-11.4-4.9-13.5-2.7-3.3 3.4 0.7 11.4 4.2 12.4 10.6 3 23.4-1.8 33.1-5.6 22.4-8.9 44-21.9 63.3-36.2"/>
	</g>
</svg>