<svg xmlns="http://www.w3.org/2000/svg" direction="ltr" width="412.23438533035966" height="185.309345806872" viewBox="297.07122760658325 2136.2306303703103 412.23438533035966 185.309345806872" stroke-linecap="round" stroke-linejoin="round" style="background-color: transparent;" data-color-mode="light" class="tl-container tl-theme__force-sRGB tl-theme__light"><defs/><g transform="matrix(1, 0, 0, 1, 339.0808, 2222.3641)" opacity="1"><g transform="scale(1)"><path d="M-1.5789,-2.3684 T0.4575,-3.5524 6.0976,-6.8434 16.2428,-12.6879 29.9856,-19.9359 43.2228,-26.1563 54.3479,-30.9876 64.4521,-35.383 74.3528,-39.7204 84.2917,-43.1038 93.4727,-45.5989 101.1378,-47.8975 109.338,-49.8255 118.2647,-51.3767 127.4807,-52.8588 138.0904,-54.1613 149.1242,-55.0365 160.3647,-55.5116 171.371,-55.7688 182.6203,-55.5811 194.6111,-55.1528 206.6971,-54.4268 218.2233,-53.2111 228.6683,-52.2287 239.8978,-51.2061 252.2867,-49.5 264.1018,-47.4248 274.1395,-45.3113 282.6611,-43.5168 290.4704,-41.5415 297.1985,-39.4828 302.9444,-37.718 308.3805,-35.9334 313.0615,-34.1271 316.9656,-32.3559 320.3994,-30.8155 323.2578,-29.3403 325.8665,-27.7312 329.3143,-25.3414 333.079,-22.3452 336.0343,-19.2291 338.5917,-15.7494 340.4138,-11.8597 341.1458,-8.3258 341.3638,-4.851 340.9448,-0.6387 339.174,4.2444 336.8735,8.423 334.3759,11.9116 331.2341,16.0524 327.7022,20.8451 323.5994,26.2379 319.0031,31.6726 314.3029,36.467 310.232,40.0738 306.2134,43.3275 300.7935,46.8033 293.9443,49.9044 285.4767,52.8779 275.1812,56.1092 262.8692,59.5009 250.4343,62.4912 238.7428,64.777 226.4614,66.517 214.8575,67.6263 204.2848,68.2289 193.6306,68.5557 182.2902,68.7328 171.2321,68.8288 161.1406,68.8808 151.191,68.5812 140.217,67.9276 128.4343,67.4098 115.8068,66.801 102.372,65.8153 89.5352,64.7919 78.2924,63.7449 67.9139,62.5209 58.1797,61.2007 50.0729,59.824 42.8438,58.248 35.7875,56.4056 29.495,54.5848 24.3726,53.2908 19.4372,52.0908 13.9964,50.2544 9.1022,48.4641 5.3324,46.8548 2.0556,45.2153 -0.883,43.966 -3.5883,42.8071 -6.4302,41.0722 -9.2969,38.632 -11.3488,35.9603 -12.4905,33.141 -13.0767,29.8687 -13.32,26.6388 -13.0015,22.7964 -12.6151,20.4207 A3.4712,3.4712 0 0 1 -5.9849,22.4793 T-6.3205,24.1775 -6.7089,27.2818 -6.7702,30.2995 -6.4475,33.3962 -5.0291,36.0105 -2.3085,38.3264 0.8718,40.2161 3.9256,41.7933 6.8612,43.556 10.3116,45.1997 15.0938,46.9919 20.2484,48.7485 25.2007,49.9536 30.4582,51.2786 36.6582,53.0735 43.5801,54.885 50.6546,56.4297 58.6481,57.7889 68.3173,59.1003 78.619,60.3167 89.8085,61.3582 102.6246,62.3801 115.9687,63.3603 128.5851,63.9682 140.4234,64.4882 151.2942,65.1385 161.123,65.4339 171.2024,65.3809 182.2354,65.2839 193.5238,65.1061 204.0889,64.7807 214.534,64.1842 225.9744,63.0893 238.0738,61.3727 249.6237,59.1066 261.9319,56.1353 274.1224,52.7593 284.2913,49.5434 292.4609,46.6588 298.81,43.7859 303.8625,40.4796 307.7032,37.2598 311.4908,33.7613 315.8466,29.0906 320.1019,23.7148 323.8795,18.2296 327.0465,13.2188 329.622,8.9281 332.2402,4.2682 334.2229,0.1038 334.8895,-2.9842 335.0238,-6.1623 334.8588,-9.4104 333.6463,-12.759 331.7741,-15.7612 329.4772,-18.6468 326.3041,-21.7187 322.3907,-24.889 318.739,-27.4051 315.4406,-29.1091 311.7638,-30.9045 307.3041,-32.662 301.9308,-34.4277 296.1974,-36.1882 289.6191,-38.2126 281.9542,-40.1469 273.4222,-41.9431 263.5029,-44.0327 251.8178,-46.0881 239.5915,-47.7751 228.3473,-48.7989 217.858,-49.7843 206.493,-50.9873 194.4882,-51.7064 182.5719,-52.1326 171.4506,-52.3167 160.5132,-52.0588 149.3962,-51.587 138.5189,-50.7215 128.038,-49.4279 118.8621,-47.9399 110.1664,-46.4286 102.1588,-44.521 94.4143,-42.1661 85.4534,-39.7031 75.8322,-36.3696 65.963,-31.9557 55.9036,-27.4564 44.9508,-22.5339 31.9962,-16.2229 18.5734,-8.826 8.7486,-2.7288 3.455,0.944 1.5789,2.3684 A2.8464,2.8464 0 0 1 -1.5789,-2.3684 Z" stroke-linecap="round" fill="#aeaca3"/></g></g></svg>