<?xml version="1.0" encoding="UTF-8"?>
<svg id="Layer_2" data-name="Layer 2" xmlns="http://www.w3.org/2000/svg" viewBox="0 0 591.81 235.23">
  <g id="Layer_1-2" data-name="Layer 1">
    <g>
      <path d="M139.51,106.44c11.51,3.88,40.2-58.72,55.02-48.83l-2.44,10.98c5.21-2.59,6.15-13.56,12.79-14.16,6.38-.58,1.02,10.39,1.88,14.16,6.3-4.82,8.47-12.63,17.7-13.47,13.3-1.21,5,4.97,5.41,11.65.77,12.46,16.12-2.99,20.3-4.27,6.78-2.07-6.47,9.8-8.54,11.02-16.27,9.63-13.22-3.52-16.56-6.15-.68-.53-4.03,4.84-7.9,4.93s-.84-5.73-2.47-4.93c-7.39,11.29-13.46,9.22-11.63-4.88-5.68,5.77-13.06,24.62-17.71,7.33-2.73,4.92-10.38,8.1-13.36,11.08-7.45,7.43-12.58,17.9-21.47,24.96-18.9,7.9-20.37,19.4-30.54,36.66C31.44,275.76-42.7,134.29,28.5,42.56,59.27-.19,94.75.14,94.27,60.04c-2.76.47-2.41-.23-3.05-2.38-1-39.48-23.44-54.27-50.7-21.39-61.93,53.38-35.3,224.23,58.05,125.16,5.63-6.04,31.04-41.04,30.96-47.29-25.72-18.34-8.72-73.17,7.02-94.29,47.44-37.58,12.59,71.41,2.95,86.59ZM152.75,17.53c-23.93-1.63-45.17,81.55-19.95,91.36,7.94-14.96,30.45-72.29,19.95-91.36Z"/>
      <path d="M343.24,7.95c18.59,22.39-17.34,48.23-31.25,60.03,57.48,71.14-115.64,242.87-119.77,129.62,4.06-42.83,32.75-78.4,49.34-115.6,4.6-10.32,9.46-10.83,15.34-17.65,4.67-5.42,23.16-38.03,26.36-39.62,9.9-4.75-19.24,33.92-17.82,34.09,14.11-6.74,31.21-6.74,43.18,3.5,71.77-50.48,19.6-72.44-39.51-40.73,13.71-17.67,57.22-30.64,74.14-13.63ZM248.31,88.13c3.64,6.23,53.63-18.28,53.76-21.36-10.43-11.39-33.89-4.72-43.97,4.89-1.61,1.63-10.52,15.2-9.78,16.47ZM243.59,93.12c-17.57,25.31-88.62,151.5-8.41,129.07,49.56-18.62,103.62-100.8,71.21-151.11-16.69,9.95-42.56,27.46-62.8,22.05Z"/>
      <path d="M353.43,51.51s-3.65,17.08-3.65,17.08c5.55,1.4,17.23-19.13,26.89-14.66-.32,15.7,6.27-16.41,16.54,7.37,14.36-7.42,24.33-20.66,22.57,7.93-.45,7.13,20.21-11.71,21.36-12.93,1.57-2.55-1.15-5.81,3.73-4.84,4.14.82,1.52,4.27,4.21,7.62,33.56,24.56,110.95,6.28,146.72,28.43-14.33,6.96-40.78-5.73-58.08-6.68-27.18-3.06-63.08.71-87.01-13.22-1.98-1.15-6.61-6.12-7.08-6.13-1.49-.03-23.63,15.63-24.56,16.79-3.91,4.94-7.22,22.53-13.68,31.52-23.93,30.19-27.71-12.8,8.9-35.07.29-.61,2.22-12.91,1.8-13.45s-2.25,2.01-3.36,2.23c-10.15-2.06-7.87,3.51-16.77,3.94-4.91-.79-4.28-9.78-7.35-8.6-3.56,1.37-7.64,12.91-11,12.19-4.07-.86.47-13.4-3.66-12.19-7.47,2.2-25.38,31.71-23.25,1.21l-11.01,13.4c-4.09,1.26-.4-29.25,3.01-18.97-.13,4.16-5.06,10.63-3.02,15.33,2.56-1.92,13.79-22.16,17.73-18.31ZM387.68,115c5.62,4.11,22.91-30.33,20.76-32.97-1.9-2.33-28.17,27.54-20.76,32.97Z"/>
    </g>
  </g>
</svg>