<svg xmlns="http://www.w3.org/2000/svg" direction="ltr" width="148.5238242839963" height="131.2199999999998" viewBox="438.66098345876276 2416.3386815878825 148.5238242839963 131.2199999999998" stroke-linecap="round" stroke-linejoin="round" style="background-color: transparent;" data-color-mode="light" class="tl-container tl-theme__force-sRGB tl-theme__light"><defs/><g transform="matrix(1, 0, 0, 1, 478.5272, 2474.0826)" opacity="1"><g transform="scale(1)"><path d="M0.8874,-3.109 T2.0291,-2.7739 4.933,-1.6165 8.2204,0.0819 11.6658,2.5704 15.6233,5.4616 19.2322,8.0598 21.9726,10.2897 24.3458,11.9776 27.3945,13.8547 30.6983,16.1106 33.7676,18.4063 36.7648,20.468 39.7481,22.9198 42.8939,25.7226 45.6026,28.3147 48.8357,30.7351 50.9102,31.8369 A3.5672,3.5672 0 0 1 47.7698,38.2431 T45.9088,37.2473 42.8699,35.2992 40.441,32.8637 37.8955,30.2514 35.1149,27.7681 32.0388,25.0635 29.2793,22.7978 27.0099,20.8699 24.2043,18.7348 21.0667,16.7332 18.354,14.9179 15.9363,13.1054 12.9546,11.3572 9.3251,9.0451 6.1407,6.6223 3.0698,4.6913 0.2555,3.426 -0.8874,3.109 A3.2332,3.2332 0 0 1 0.8874,-3.109 Z" stroke-linecap="round" fill="#e08311"/></g></g><g transform="matrix(1, 0, 0, 1, 499.2653, 2448.3387)" opacity="1"><g transform="scale(1)"><path d="M2.8309,0 T2.8259,1.4651 3.0493,4.6518 3.3574,8.6927 3.5187,12.8946 3.7272,17.8517 4.0196,22.5602 4.3169,25.672 4.7563,29.2768 5.4391,33.8571 6.0647,38.677 6.4261,43.0288 6.5985,46.8622 6.7026,50.4292 6.7821,53.6632 6.8484,56.723 6.9236,59.9891 7.0145,64.4653 7.0598,67.22 A3.4798,3.4798 0 0 1 0.1002,67.22 T0.1455,64.4655 0.236,59.9899 0.31,56.7256 0.3727,53.671 0.4398,50.4558 0.5017,46.9482 0.532,43.2827 0.4131,39.3057 0.0192,34.7948 -0.4348,29.9466 -0.6789,26.0986 -0.9364,22.8572 -1.1655,18.0196 -1.3121,13.2161 -1.6985,9.3296 -2.3972,5.099 -2.8259,1.4716 -2.8309,0 A2.8309,2.8309 0 0 1 2.8309,0 Z" stroke-linecap="round" fill="#e08311"/></g></g><g transform="matrix(1, 0, 0, 1, 470.661, 2499.8266)" opacity="1"><g transform="scale(1)"><path d="M-1.3724,-2.4937 T1.9569,-4.1611 8.4733,-7.9451 15.0129,-11.9356 22.291,-15.9366 29.4266,-20.1444 35.2484,-23.8693 39.7655,-26.723 43.5747,-28.9773 46.9879,-30.8126 49.9261,-32.3613 53.3451,-34.2568 56.7039,-36.0713 59.663,-37.9829 63.0142,-40.109 66.6624,-41.4282 69.9738,-42.3311 73.3916,-43.2332 76.8064,-44.1641 79.9717,-45.032 82.4152,-45.8313 83.114,-46.2665 A3.474,3.474 0 0 1 85.9336,-39.9164 T84.2331,-39.2864 80.9632,-38.2962 77.8947,-37.5777 74.689,-36.8842 71.5121,-36.1385 68.285,-35.524 64.9461,-34.6302 61.7763,-32.9231 58.8311,-31.4819 55.3447,-30.1726 51.7147,-28.623 48.7358,-27.3421 45.4713,-25.7782 41.8,-23.5777 37.361,-20.6399 31.5141,-16.7193 24.3919,-12.2713 17.456,-8.1481 11.0522,-3.7929 4.5639,0.5724 1.3724,2.4937 A2.8464,2.8464 0 0 1 -1.3724,-2.4937 ZM81.0592,-42.837 T80.9671,-43.8148 80.8749,-44.7926 A3.5145,3.5145 0 0 1 87.8851,-45.3074 T87.9368,-44.3266 87.9884,-43.3459 A3.474,3.474 0 0 1 81.0592,-42.837 Z" stroke-linecap="round" fill="#e08311"/></g></g></svg>