<?xml version="1.0" encoding="UTF-8"?>
<svg id="Layer_2" data-name="Layer 2" xmlns="http://www.w3.org/2000/svg" viewBox="0 0 500.84 198.76">
  <g id="Layer_1-2" data-name="Layer 1">
    <path d="M106.96,1.87c86.87-9.21,198.44,17.06,279.89,46.88,34.03,12.46,113.75,37.63,114,81.5.45,78.49-112.57,69.35-164.44,66.89-82.33-3.91-194.82-12.51-272.97-36.91C-57.62,122.45,15.91,11.53,106.96,1.87ZM130.99,7.91c-40.32,3.08-90.02,23.09-108.63,61.3-29.57,60.73,36.02,79.91,81.02,91.06,72.36,17.94,172.21,30.39,246.85,33.04,45.12,1.6,146.53,4.11,141.13-63.15-1.84-22.95-29.69-38.39-48.73-47.22C354.98,42.28,227.52.53,130.99,7.91Z"/>
  </g>
</svg>