<?xml version="1.0" encoding="UTF-8"?>
<svg id="Layer_2" data-name="Layer 2" xmlns="http://www.w3.org/2000/svg" viewBox="0 0 743.69 323.58">
  <g id="Layer_1-2" data-name="Layer 1">
    <path d="M742.92,110.37c-1.6-.59-11.22,5.01-13.53,5.83-5.29,1.89-34.88,7.81-24.61-4.62,6.87-8.32,16.89-13.03,24.09-24.36,6.5-10.23,2.34-20.15-10.36-18.84-8.92.92-18.84,21.65-20.98,29.46-1.01,3.68-.89,10.89-2.04,12.94-.38.68-9.95,7.68-10.69,7.82-1.39.26-1.91-.44-2.63-1.43-1.41-1.95-7.42-16.37-7.78-18.73-.71-4.64,4.23-3.84,6.66-6.1,3.89-3.63.51-7.99-4.51-7.52-11.52,1.09-18.64,18.4-25.25,25.71-1.55,1.71-6.88,7.8-6.99,3-.1-4.2,2.86-8.68-.35-13.1-7.3-10.06-17.21,12.15-20.37,12.38-1.05.07-1.09-2.51-1.18-3.32-.52-4.24,1.08-10.77-6.09-10.45-10.15.46-9.71,8.06-13.29,14.69-1.3,2.41-8.67,13.69-12.12,11.51-3.33-2.1,7.87-21.22-1.27-19.94-2.45.34-16,23.05-19.76,26.75-7.91,7.77-4.05-9.28-2.52-12.51,1.83-3.89,12.99-13.91,16.49-18.48,24.05-31.42,23.86-66.6-11.03-89.33-47.75-31.69-90.62,6.06-108.39,50.37.32,2.54,3.06,1.94,4.51.53.98-.95,1.37-3.1,2.26-4.23,14.66-18.67,27.75-37.19,50.71-46.7,36.12-14.96,76.03,12.22,71.32,51.8-3.28,27.56-32.41,53.34-54.38,67.51-10.18,6.57-42.19,24.87-52.91,26.53-4.92.76-6.14-2.13-10.18-3.85-2.4-1.02-12.79-3.18-13.28-4.74-.44-1.41,14.04-21.91,15.86-24.98,16.92-28.55,31.62-58.49,51.79-85.08,1.77-5.34-6.38-2.63-8.23-.23-8,13.1-17.55,25.22-25.79,38.14-16.94,26.55-31.91,65.65-66.03,74.34-14.01,3.56-10.75-2.76-12.66-12.54-.3-1.51-1.96-3.4-1.94-4.06.02-.95,9.8-6.18.63-8.11-21.74-2.96-38.01,30.89-57.98,36.74-12.37,1.34,11.97-28.66-2.09-24.09-3.53,1.15-14.35,16.3-18.01,19.95-3.43,2.88-16.14,15.46-20.54,12.03-2.05-2.59,4.91-16.83,6.63-19.94,1.34-2.4,7.42-9.45,7.35-11.59-.09-2.37-2.58-2.58-3.19-3.73-.83-1.58.03-3.21-1.99-5.51-5.66-6.44-10,4.48-13.49,8.02-5.49,5.56-13.06,10.92-18.78,16.69-8.75,8.29-26.13,32.67-36.45,35.22,21.01-32.53,44.95-66.49,47.46-106.63,1.43-22.85-6.18-48.69-34.73-36.7-38.02,15.97-64.2,86.92-57.98,125.37,2.62,16.17,13.15,19.11,24.77,25.68,3.21,1.81,3.42,1.8,1.6,5.13-39.15,53.53-96.78,110.79-169.14,103.38-27.24-2.98-45.54-23.33-55.43-47.48C-16.89,192.77,63.75,21.94,148.23,44.02c25.35,6,35.12,55.46,35.36,77.53,14.31-3.19-5.55-59.17-11.8-66.61C96.25-12.4,24,114.42,6.33,177.63c-22.62,72.95,16.53,145.97,99.5,132.4,61.66-10.08,106.66-61.14,142.76-108.03,6.2-2.24,12.16-3.36,17.61-7.37,1.87-1.37,12.76-13.1,13.82-12.4.84.56,1.3,6.93,7.68,3.42,3.94-2.17,6.33-7.12,8.82-9.66,1.18-1.21,3.33-2.27,4.5-3.5,1.29-1.35,8.85-10.59,9.76-10.73,1.89-.28,0,7.97,1.3,10.67.92,1.91,7.12,4.48,9.18,4.33,3.49-.25,10.35-4.59,13.2-6.81,2.45-1.91,11.43-11.97,12.83-12.16,1.17-.15,1.17,3.52,1.77,4.65,4.16,7.89,13.99,5.14,20.08,1.71,3.48-1.96,10.49-9.14,13.22-9.76,3.47-.79,8.3,1.4,13.14.64,5.22-.82,11.07-7.02,13.34-7.19,1.66-.13,4.91,4.95,6.95,6.33,13.43,9.72,22.55.94,34.14-3.91-22.42,37.7-75.3,100.37-75.94,145.55.96,30.24,31.83,33.79,53.61,20.15,42.89-27.45,82.58-100.55,60.43-150.55-.05-.83.37-1.33.91-1.89,1.33-1.39,19.88-8.06,23.63-9.84,16.01-7.59,30.97-17.5,45.64-27.32,1.93.12.9,3.94,1.27,5.55,10.24,18.02,18.9-2.06,23.64-7.65,1.74-.33,1.95,2.17,3.26,3.24,10.98,9.01,20.11-5.07,25.05-13.86.79-1.41,2.34-7.58,4.16-7.31,3.74.54-3.3,22.22,5.42,21.8,3.2-.15,8.8-10.89,11.11-13.79,10.69-13.4,4.79-.41,7.08,5.82,2.31,6.28,9.17,1.64,12.36-.87,1.1-.86,2.16-3.3,3.26-3.73,1.79-.69,3.8.06,5.62-.37,4.61-1.08,9.53-9.59,11.03-9.3.95.18,9.01,15.62,6.55,17.39-51.41,31.27-99.66,71.18-93.19,137.61,9.55,67.16,30,26.16,49.88-8.11,16.31-26.46,51.16-80.36,52.09-110.24.13-4.02-1.45-14.58.24-17.24.56-.89,9.51-6.97,10.48-6.97,1.85,0,6.54,5.19,9.64,6.31,8.81,3.19,21.58-.4,29.15-5.53,1.35-.91,9.97-7.52,6.6-8.76ZM723.98,74.4c9.99.83-19.17,31.5-19.71,27.93-1.66-1.82,11.7-28.68,19.71-27.93ZM245.96,192.89c-6.33,6.31-17.21-2.32-20.92-7.9-19.74-39.55,16.13-125.67,60.87-135.99,8.91-.45,10.83,14.81,11.12,21.1,1.5,45.07-26.13,87.69-51.07,122.79ZM402.71,145.79c-2.21,1.82-15.3,10.22-13.65,2.85.43-1.91,14.82-13.39,17.26-13.73,7.92-1.12-1.48,9.13-3.61,10.89ZM460.3,155.4c2.55-.42,17.02-.25,15.55,4.03-.92,2.69-18.01,3.26-20.6,2.25-2.99-1.16,1.97-5.78,5.05-6.28ZM418.4,310.79c-39.82,23.53-37.85-15.61-28.32-42.29,12.92-36.17,39.28-69.89,59.86-101.98,2.07-1.69,3.83.57,6.23.73,5.34.36,13.18.38,18.51.03,2.1-.14,5.06-2.39,6.6-.9.76.74,3.86,11.86,4.11,13.62,6.83,47.14-26.85,107.07-66.99,130.79ZM678.96,151.7c-11.03,45.68-54.85,93.15-76.2,135.09-5.71,7.47-8.02-5.44-9-9.84-12.8-56.33,19.43-104.77,65.59-133.86,2.46-1.79,18.53-12.52,20.2-12.16,3.17.69.15,17.69-.59,20.77Z"/>
  </g>
</svg>