<?xml version="1.0" encoding="UTF-8"?>
<svg id="Layer_2" data-name="Layer 2" xmlns="http://www.w3.org/2000/svg" viewBox="0 0 59.32 75.81">
  <g id="Layer_1-2" data-name="Layer 1">
    <path d="M28.24,17.87s8.45-10.35,12.06-12.88c22.21-15.55,22.6,8.8,13.2,25.19-5.06,8.81-18.48,20.36-21.78,28.2-2.65,6.29.64,12.75-4.51,17.44-2.42-.02-5.05-19.01-6.63-23.32C15.56,38.73-9.78,16.94,4.12,2.8c8.61-8.76,22.14,6.23,24.12,15.06ZM26.22,33.86c-.41-.55.28-9.23-.46-12.53C22.98,8.97,4.69-4.66,4.44,12.84c-.13,9.45,13.56,22.44,18.67,31.13,2.39,4.06,2.72,8.67,6.11,11.85,9.15-15.38,26.7-28.42,24.99-47.94-15.46-2.68-18.65,12.95-23.81,23.14-.69,1.36-1.14,6.93-4.17,2.84Z"/>
  </g>
</svg>