<?xml version="1.0" encoding="UTF-8"?>
<svg id="Layer_2" data-name="Layer 2" xmlns="http://www.w3.org/2000/svg" viewBox="0 0 87.33 138.49">
  <g id="Layer_1-2" data-name="Layer 1">
    <path d="M39.54,58.55c12.77-9.44,25.85-31.55,44.66-25.68,2.85.89,3.91,3.02,2.53,5.78L13.54,138.49c3.43-19.94-5.98-39.64-9.38-59.59-3.69-21.64-7.12-45.53-.07-66.78,5.64-16.98,17.76-14.87,26.33-1.47,8.58,13.42,6.59,32.67,9.11,47.88ZM29.54,74.54c7.24-15.45,6.88-53.51-4.92-66.05C14.5-2.26,9.81,3.4,6.52,14.54c-10.82,36.67,6.45,75.79,11.03,111.97L83.5,36.58c-15.79-2.08-33.11,14.65-43.08,25.87-3.68,4.14-3.33,10.76-10.88,12.09Z"/>
  </g>
</svg>