<svg xmlns="http://www.w3.org/2000/svg" direction="ltr" width="190.4787026112972" height="212.9293110705521" viewBox="401.17825964977715 2852.3527417940927 190.4787026112972 212.9293110705521" stroke-linecap="round" stroke-linejoin="round" style="background-color: transparent;" data-color-mode="light" class="tl-container tl-theme__force-sRGB tl-theme__light"><defs/><g transform="matrix(1, 0, 0, 1, 501.8268, 2986.4822)" opacity="1"><g transform="scale(1)"><path d="M-2.5322,0.9489 T-3.2357,-1.2938 -5.0251,-5.3957 -7.3771,-10.4788 -10.3434,-17.2337 -13.8013,-24.3768 -17.3206,-31.3084 -20.6363,-38.4643 -24.0614,-45.6161 -27.7955,-52.1614 -31.4538,-57.9101 -34.8063,-62.6712 -37.7252,-66.6397 -40.6391,-70.1146 -43.8104,-73.3177 -47.7884,-76.0702 -52.4125,-78.5995 -56.3165,-81.0457 -60.3231,-82.817 -63.801,-82.5262 -65.1719,-79.6184 -65.6706,-75.3395 -65.8096,-70.3371 -65.4156,-64.9285 -64.7112,-60.0704 -63.5594,-55.2884 -61.862,-49.6621 -59.6175,-43.9234 -57.0735,-38.9559 -54.7968,-33.8713 -52.7326,-28.8995 -50.8161,-24.6079 -48.9605,-21.3359 -46.6234,-18.2906 -43.7463,-14.6184 -41.0146,-11.2392 -38.6971,-8.7173 -35.0551,-5.2225 -31.1702,-1.3744 -28.4523,1.2385 -25.7778,3.8118 -23.2027,6.2955 -20.6864,8.7342 -17.7191,11.7695 -14.5088,15.127 -11.8137,18.098 -9.4287,21.1469 -7.276,24.913 -5.5283,28.2958 -3.3096,31.5447 -0.7364,35.2572 1.2206,38.3223 2.3365,41.1079 3.7501,43.1463 4.8747,43.7711 A3.2586,3.2586 0 0 1 2.4705,49.8287 T0.3344,47.8549 -2.5241,43.8102 -3.8459,40.4541 -5.2557,37.6169 -7.3119,33.8816 -9.3117,30.2471 -10.8919,27.0354 -12.8363,23.7423 -14.9486,20.8977 -17.4776,18.098 -20.8359,14.8964 -23.8747,11.9432 -26.3216,9.451 -28.8214,6.9189 -31.427,4.321 -34.3667,1.4765 -36.9662,-1.4172 -39.1944,-3.7962 -41.6555,-6.1013 -43.942,-8.9179 -46.6309,-12.3175 -49.6694,-16.0435 -52.1377,-19.5062 -54.0525,-23.1432 -56.0327,-27.503 -58.097,-32.3574 -60.3667,-37.2383 -63.1456,-42.4925 -65.6315,-48.4604 -67.5665,-54.2362 -69.0433,-59.2822 -70.1366,-64.3927 -71.0184,-70.2259 -71.4743,-75.7627 -71.4082,-79.6278 -70.3722,-83.7082 -68.473,-87.5705 -65.9267,-89.1873 -62.5206,-89.1714 -58.9405,-88.1016 -55.2795,-86.2407 -51.8492,-83.7326 -49.172,-81.7176 -46.764,-80.1366 -44.3351,-78.3284 -41.3533,-75.7625 -37.9728,-72.3521 -34.92,-68.7245 -31.9339,-64.6997 -28.4799,-59.8303 -24.6894,-53.9446 -20.7998,-47.2005 -17.2936,-40.0492 -13.9453,-33.0586 -10.2774,-26.1317 -6.5926,-18.9314 -3.5118,-12.4799 -0.8251,-7.4613 1.5849,-3.1112 2.5322,-0.9489 A2.7042,2.7042 0 0 1 -2.5322,0.9489 ZM1.7625,44.1598 T2.2414,43.8781 4.4968,40.5335 8.1568,32.181 13.1096,19.9645 19.2182,5.7744 25.584,-9.5708 32.0962,-26.4138 38.4096,-43.5474 44.064,-59.2011 48.2379,-71.7987 51.0674,-80.8547 52.8797,-87.1221 54.1197,-91.6725 55.0435,-95.9578 53.4737,-96.3272 49.5565,-92.6493 45.2842,-88.8086 41.3159,-84.8809 36.6402,-80.0045 31.0253,-74.044 24.7176,-66.4869 18.5696,-58.0509 13.601,-49.6827 8.6478,-41.219 4.5809,-34.1551 1.2233,-28.6001 -1.3974,-24.2659 -2.9598,-20.6364 -4.1234,-16.8921 -5.0391,-13.5289 -5.5486,-10.4042 -5.5869,-7.0567 -4.4107,-3.5472 -3.2275,-1.5953 A3.2334,3.2334 0 0 1 -8.8525,1.5953 T-9.5702,-0.4727 -10.8255,-4.4428 -11.1752,-8.3258 -10.6646,-11.8889 -9.5816,-14.7857 -7.9533,-18.2962 -6.2568,-22.1345 -4.4131,-26.0164 -1.7784,-30.4353 1.4818,-35.9077 5.5312,-43.0374 10.4433,-51.5533 15.5119,-60.2314 21.7374,-68.9645 28.0493,-76.7734 33.4863,-82.8646 37.9947,-87.996 41.8057,-92.3392 45.7648,-96.6107 48.7281,-99.6885 50.8943,-101.6238 53.2022,-103.3796 56.9066,-103.7118 59.7151,-101.1871 59.5842,-97.2534 58.6708,-93.9536 57.5931,-90.6935 56.3208,-86.1625 54.529,-79.7849 51.7476,-70.6591 47.6277,-57.9318 42.0848,-42.2127 35.9122,-24.962 29.5895,-7.9536 23.5022,7.5529 17.8507,21.7348 13.3318,34.3464 9.925,43.7556 6.9268,48.4026 5.5828,49.4399 A3.2586,3.2586 0 0 1 1.7625,44.1598 Z" stroke-linecap="round" fill="#fa63af"/></g></g></svg>