<svg xmlns="http://www.w3.org/2000/svg" direction="ltr" width="514.52" height="93.01787687097931" viewBox="264.17427527720776 2732.0035321229825 514.52 93.01787687097931" stroke-linecap="round" stroke-linejoin="round" style="background-color: transparent;" data-color-mode="light" class="tl-container tl-theme__force-sRGB tl-theme__light"><defs/><g transform="matrix(1, 0, 0, 1, 296.1743, 2793.0214)" opacity="1"><g transform="scale(1)"><path d="M-0.2303,-2.7448 T1.732,-2.8374 6.1269,-2.9065 11.1763,-2.8449 17.8255,-2.7687 26.6586,-2.6973 36.6785,-2.637 49.1398,-2.5888 63.5816,-2.5513 77.6325,-2.5228 92.2872,-2.5015 110.4897,-2.9726 129.8434,-3.7138 149.1658,-4.7655 172.8232,-7.1256 199.0703,-10.2025 223.3024,-13.1801 249.1851,-16.7533 279.2593,-20.8168 306.881,-24.3328 328.9457,-26.7382 348.7964,-28.3748 367.1033,-29.5908 382.6311,-30.2533 395.9737,-30.6134 407.2025,-30.482 416.1293,-29.9181 422.6331,-29.281 427.1328,-28.8322 430.9026,-28.498 434.2273,-28.0463 437.918,-27.2229 441.6007,-26.2443 444.3275,-25.1892 447.187,-23.4474 450.5068,-21.4797 452.273,-20.5887 A3.2264,3.2264 0 0 1 448.767,-15.1713 T447.4535,-16.0898 444.6367,-18.2496 441.4515,-20.4497 438.3944,-22.1615 434.637,-23.6795 430.4589,-24.7496 426.7446,-25.2935 422.2813,-25.8553 415.9051,-26.4809 407.1488,-27.0395 396.0648,-27.1691 382.7754,-26.8104 367.3275,-26.1516 349.0797,-24.9388 329.312,-23.3093 307.3171,-20.9095 279.7227,-17.3945 249.6552,-13.3283 223.7267,-9.7442 199.4746,-6.7572 173.1601,-3.6644 149.3509,-1.2801 129.9776,-0.2074 110.5721,0.5592 92.2878,1.0661 77.6334,1.0914 63.5833,1.127 49.1437,1.1776 36.6873,1.25 26.6781,1.3547 17.8804,1.5076 11.3072,1.7339 6.4347,2.0712 2.1805,2.509 0.2303,2.7448 A2.7545,2.7545 0 0 1 -0.2303,-2.7448 Z" stroke-linecap="round" fill="#aeaca3"/></g></g></svg>